<svg xmlns="http://www.w3.org/2000/svg" viewBox="0 0 765.77 278.73"><defs><style>.cls-1{fill:#1d1d1b;}.cls-2{fill:#3c3c3b;}.cls-3{fill:#706f6f;}.cls-4{fill:#575756;}</style></defs><g id="Calque_2" data-name="Calque 2"><g id="Calque_1-2" data-name="Calque 1"><path class="cls-1" d="M357.36,47.44a18.52,18.52,0,0,1-6.15,14.13q-6.15,5.71-15.65,5.72-9.71,0-15.86-5.72a18.52,18.52,0,0,1-6.15-14.13,18.76,18.76,0,0,1,6.15-14.35q6.15-5.73,15.86-5.72,9.49,0,15.65,5.72A18.76,18.76,0,0,1,357.36,47.44Z"/><path class="cls-2" d="M29.35,196.34a48.53,48.53,0,0,1-21-16Q.42,169.8,0,154.9H39.28q.86,8.41,5.82,12.84t12.95,4.43q8.21,0,13-3.78a12.63,12.63,0,0,0,4.75-10.47A12.39,12.39,0,0,0,72,148.64a30.72,30.72,0,0,0-9.28-6A148.66,148.66,0,0,0,47,137.21a169.29,169.29,0,0,1-23.95-9.07,44.21,44.21,0,0,1-16-13.38Q.43,105.93.43,91.67q0-21.14,15.32-33.12t39.93-12q25,0,40.35,12t16.4,33.34H72.51a15.67,15.67,0,0,0-5.39-11.55q-5-4.2-12.74-4.2-6.69,0-10.79,3.56T39.49,90q0,7.33,6.91,11.43T68,110.23a199.64,199.64,0,0,1,23.84,9.5,45.49,45.49,0,0,1,15.87,13.16q6.68,8.64,6.69,22.23a43.6,43.6,0,0,1-6.59,23.52q-6.58,10.58-19.09,16.83t-29.57,6.26Q42.51,201.73,29.35,196.34Z"/><path class="cls-2" d="M204.15,168.93v31.29H185.37q-20.07,0-31.29-9.82t-11.22-32V110.45H128.19V79.8h14.67V50.46h36.9V79.8h24.17v30.65H179.76v48.34c0,3.6.86,6.18,2.59,7.77s4.6,2.37,8.63,2.37Z"/><path class="cls-2" d="M277.73,84.23a41.78,41.78,0,0,1,21.58-5.72v39.06H289.17q-13.82,0-20.72,5.93t-6.9,20.83v55.89h-36.9V79.8h36.9V99.87A48.68,48.68,0,0,1,277.73,84.23Z"/><path class="cls-2" d="M317,79.81V200.22h36.9V79.81Z"/><path class="cls-2" d="M380.34,107.21a52.36,52.36,0,0,1,19.1-21.58,49.92,49.92,0,0,1,27-7.55,47.39,47.39,0,0,1,21.69,5,39.65,39.65,0,0,1,15.43,13.38V40.53h36.9V200.22h-36.9V183a37.69,37.69,0,0,1-14.79,13.81A46.37,46.37,0,0,1,426.42,202a49.33,49.33,0,0,1-27-7.66,52.94,52.94,0,0,1-19.1-21.8q-7-14.13-7-32.69T380.34,107.21Zm75.54,11a25.93,25.93,0,0,0-37.34-.11q-7.67,7.88-7.66,21.69t7.66,21.9a25.71,25.71,0,0,0,37.34.11q7.65-8,7.66-21.8T455.88,118.22Z"/><path class="cls-2" d="M640.06,148.86H556.54q.87,11.22,7.23,17.16A22.06,22.06,0,0,0,579.42,172q13.8,0,19.2-11.65H637.9a54.26,54.26,0,0,1-30.64,36.25,63.44,63.44,0,0,1-26.55,5.4q-17.7,0-31.5-7.55a53.74,53.74,0,0,1-21.59-21.59q-7.75-14-7.76-32.8t7.66-32.8A53,53,0,0,1,549,85.63q13.82-7.55,31.72-7.55,17.49,0,31.08,7.34A52.59,52.59,0,0,1,633,106.35q7.66,13.59,7.67,31.72A94.62,94.62,0,0,1,640.06,148.86Zm-37.12-20.5q0-9.5-6.48-15.11t-16.18-5.61a23.37,23.37,0,0,0-15.65,5.4q-6.36,5.4-7.87,15.32Z"/><path class="cls-1" d="M51.6,207.5v44.44H44.31V221.5L30.75,251.94H25.7L12.08,221.5v30.44H4.79V207.5h7.87l15.6,34.85L43.8,207.5Z"/><path class="cls-1" d="M61,224.76a16.07,16.07,0,0,1,14.42-8.63,15.48,15.48,0,0,1,7.26,1.63,14.85,14.85,0,0,1,5,4.06v-5.11h7.35v35.23H87.59V246.7a14.55,14.55,0,0,1-5,4.15,16.37,16.37,0,0,1-15.6-.67,16.55,16.55,0,0,1-6-6.52,20.08,20.08,0,0,1-2.2-9.5A19.53,19.53,0,0,1,61,224.76ZM86.09,228a10.54,10.54,0,0,0-3.93-4.09,10.28,10.28,0,0,0-5.25-1.41,10.35,10.35,0,0,0-9.17,5.41,12.56,12.56,0,0,0-1.5,6.29,13.18,13.18,0,0,0,1.5,6.4,10.62,10.62,0,0,0,4,4.19,10.37,10.37,0,0,0,10.46,0,10.45,10.45,0,0,0,3.93-4.13,12.94,12.94,0,0,0,1.5-6.36A12.77,12.77,0,0,0,86.09,228Z"/><path class="cls-1" d="M119.62,234.1,131,251.94h-8.25l-7.61-12-7.16,12h-7.61l11.38-17.33-11.38-17.9h8.25l7.61,12,7.16-12H131Z"/><path class="cls-1" d="M136.82,210.7a4.67,4.67,0,0,1,3.33-8,4.42,4.42,0,0,1,3.26,1.34,4.8,4.8,0,0,1,0,6.65,4.46,4.46,0,0,1-3.26,1.34A4.56,4.56,0,0,1,136.82,210.7Zm6.91,6v35.23h-7.29V216.71Z"/><path class="cls-1" d="M203.41,217.86a12.5,12.5,0,0,1,5.18,5.11,16.58,16.58,0,0,1,1.89,8.19v20.78h-7.23V232.25q0-4.74-2.36-7.26a8.41,8.41,0,0,0-6.46-2.53,8.5,8.5,0,0,0-6.49,2.53q-2.4,2.52-2.4,7.26v19.69h-7.22V232.25q0-4.74-2.37-7.26a8.41,8.41,0,0,0-6.46-2.53A8.52,8.52,0,0,0,163,225q-2.38,2.52-2.39,7.26v19.69h-7.29V216.71h7.29v4a12,12,0,0,1,4.54-3.39,14.37,14.37,0,0,1,5.88-1.22,15.67,15.67,0,0,1,7.54,1.79,12.3,12.3,0,0,1,5.12,5.18,11.8,11.8,0,0,1,5-5.08,14.67,14.67,0,0,1,7.28-1.89A15.8,15.8,0,0,1,203.41,217.86Z"/><path class="cls-1" d="M219.52,224.76a16.07,16.07,0,0,1,14.42-8.63,15.48,15.48,0,0,1,7.26,1.63,14.65,14.65,0,0,1,5,4.06v-5.11h7.36v35.23h-7.36V246.7a14.46,14.46,0,0,1-5.05,4.15,16.37,16.37,0,0,1-15.6-.67,16.62,16.62,0,0,1-6-6.52,20.08,20.08,0,0,1-2.2-9.5A19.53,19.53,0,0,1,219.52,224.76Zm25.13,3.2a10.54,10.54,0,0,0-3.93-4.09,10.27,10.27,0,0,0-5.24-1.41,10.35,10.35,0,0,0-9.18,5.41,12.56,12.56,0,0,0-1.5,6.29,13.18,13.18,0,0,0,1.5,6.4,10.62,10.62,0,0,0,4,4.19,10.37,10.37,0,0,0,10.46,0,10.45,10.45,0,0,0,3.93-4.13,12.94,12.94,0,0,0,1.5-6.36A12.77,12.77,0,0,0,244.65,228Z"/><path class="cls-1" d="M278.19,234.1l11.38,17.84h-8.25l-7.61-12-7.16,12h-7.61l11.38-17.33-11.38-17.9h8.25l7.61,12,7.16-12h7.61Z"/><path class="cls-1" d="M295.39,210.7a4.67,4.67,0,0,1,3.32-8,4.41,4.41,0,0,1,3.26,1.34,4.68,4.68,0,0,1-6.58,6.65Zm6.9,6v35.23H295V216.71Z"/><path class="cls-1" d="M337.1,217.86a12.31,12.31,0,0,1,5.15,5.11,16.8,16.8,0,0,1,1.85,8.19v20.78h-7.22V232.25q0-4.74-2.37-7.26a8.38,8.38,0,0,0-6.45-2.53,8.5,8.5,0,0,0-6.49,2.53q-2.4,2.52-2.4,7.26v19.69h-7.29V216.71h7.29v4a12.06,12.06,0,0,1,4.57-3.39,14.66,14.66,0,0,1,5.92-1.22A15.76,15.76,0,0,1,337.1,217.86Z"/><path class="cls-1" d="M374.83,217.76a13.92,13.92,0,0,1,4.95,4.06v-5.11h7.35v35.8a18.08,18.08,0,0,1-2,8.67,14.87,14.87,0,0,1-5.92,6,18.68,18.68,0,0,1-9.24,2.17A20,20,0,0,1,358,266a12.4,12.4,0,0,1-5.37-9.11h7.23a7.79,7.79,0,0,0,3.54,4.44,12,12,0,0,0,6.49,1.7,9.69,9.69,0,0,0,7.13-2.69q2.71-2.69,2.72-7.8v-5.88a15.12,15.12,0,0,1-12.21,5.88,15.74,15.74,0,0,1-8.41-2.33,16.48,16.48,0,0,1-6-6.52,20.08,20.08,0,0,1-2.21-9.5,19.54,19.54,0,0,1,2.21-9.4,16.07,16.07,0,0,1,14.42-8.63A15.72,15.72,0,0,1,374.83,217.76Zm3.45,10.2a10.54,10.54,0,0,0-3.93-4.09,10.28,10.28,0,0,0-5.25-1.41,10.35,10.35,0,0,0-9.17,5.41,12.56,12.56,0,0,0-1.5,6.29,13.18,13.18,0,0,0,1.5,6.4,10.62,10.62,0,0,0,4,4.19,10.37,10.37,0,0,0,10.46,0,10.45,10.45,0,0,0,3.93-4.13,12.94,12.94,0,0,0,1.5-6.36A12.77,12.77,0,0,0,378.28,228Z"/><path class="cls-1" d="M420.64,207.5v44.44h-7.29V207.5Z"/><path class="cls-1" d="M480.32,217.86A12.5,12.5,0,0,1,485.5,223a16.58,16.58,0,0,1,1.89,8.19v20.78h-7.23V232.25q0-4.74-2.36-7.26a8.41,8.41,0,0,0-6.46-2.53,8.5,8.5,0,0,0-6.49,2.53q-2.4,2.52-2.4,7.26v19.69h-7.22V232.25q0-4.74-2.37-7.26a8.41,8.41,0,0,0-6.46-2.53,8.5,8.5,0,0,0-6.49,2.53q-2.4,2.52-2.4,7.26v19.69h-7.28V216.71h7.28v4a12.19,12.19,0,0,1,4.54-3.39,14.45,14.45,0,0,1,5.89-1.22,15.7,15.7,0,0,1,7.54,1.79,12.3,12.3,0,0,1,5.12,5.18,11.78,11.78,0,0,1,5-5.08,14.73,14.73,0,0,1,7.29-1.89A15.8,15.8,0,0,1,480.32,217.86Z"/><path class="cls-1" d="M509,217.8a15.4,15.4,0,0,1,7.22-1.67,16,16,0,0,1,14.39,8.63,19.87,19.87,0,0,1,2.17,9.4,20.43,20.43,0,0,1-2.17,9.5,16.33,16.33,0,0,1-6,6.52,15.74,15.74,0,0,1-8.41,2.33,15.26,15.26,0,0,1-7.16-1.63,16.05,16.05,0,0,1-5.12-4.06v21.87h-7.28v-52h7.28v5.18A14.7,14.7,0,0,1,509,217.8Zm14.86,10.07a10.31,10.31,0,0,0-4-4,10.62,10.62,0,0,0-5.28-1.38,10.33,10.33,0,0,0-5.21,1.41,10.47,10.47,0,0,0-4,4.09,12.78,12.78,0,0,0-1.51,6.33,13,13,0,0,0,1.51,6.36,10.4,10.4,0,0,0,14.45,4.1,10.62,10.62,0,0,0,4-4.19,13.18,13.18,0,0,0,1.5-6.4A12.56,12.56,0,0,0,523.86,227.87Z"/><path class="cls-1" d="M539.78,224.76a16.07,16.07,0,0,1,14.42-8.63,15.48,15.48,0,0,1,7.26,1.63,14.75,14.75,0,0,1,4.95,4.06v-5.11h7.35v35.23h-7.35V246.7a14.46,14.46,0,0,1-5,4.15,16.37,16.37,0,0,1-15.6-.67,16.55,16.55,0,0,1-6-6.52,20.08,20.08,0,0,1-2.2-9.5A19.53,19.53,0,0,1,539.78,224.76Zm25.13,3.2a10.54,10.54,0,0,0-3.93-4.09,10.28,10.28,0,0,0-5.25-1.41,10.35,10.35,0,0,0-9.17,5.41,12.56,12.56,0,0,0-1.5,6.29,13.18,13.18,0,0,0,1.5,6.4,10.62,10.62,0,0,0,4,4.19,10.37,10.37,0,0,0,10.46,0,10.45,10.45,0,0,0,3.93-4.13,12.94,12.94,0,0,0,1.5-6.36A12.77,12.77,0,0,0,564.91,228Z"/><path class="cls-1" d="M583.13,224.73a15.68,15.68,0,0,1,6.11-6.36,19.5,19.5,0,0,1,19.53.8,15,15,0,0,1,5.66,8.66h-7.87a8.33,8.33,0,0,0-3.07-4.09,9,9,0,0,0-5.3-1.47,8.82,8.82,0,0,0-7.13,3.17q-2.65,3.17-2.65,8.85t2.65,8.89a8.79,8.79,0,0,0,7.13,3.2q6.33,0,8.37-5.57h7.87a15.77,15.77,0,0,1-5.76,8.54,17,17,0,0,1-10.48,3.16,17.39,17.39,0,0,1-9-2.27,15.88,15.88,0,0,1-6.11-6.39,21.78,21.78,0,0,1,0-19.12Z"/><path class="cls-1" d="M630.22,222.65v19.51a3.72,3.72,0,0,0,.93,2.84,4.56,4.56,0,0,0,3.16.86h4.48v6.08H633q-4.92,0-7.54-2.3t-2.62-7.48V222.65h-4.16v-5.94h4.16V208h7.35v8.76h8.57v5.94Z"/><path d="M723.27,18.67a3.66,3.66,0,0,1-.49-1.09A10,10,0,0,1,723.27,18.67Z"/><path class="cls-2" d="M765.54,57.87a27.72,27.72,0,0,1,.11,6.18c-.25,2.54-1.16,5.41-3.54,6.34a8,8,0,0,1-3.75.21c-7-.72-13.8-1.66-20.81-1-8.31.84-16.6,3.76-21.81,10.63-11.57,15.25-38.78,42-54,51-.44-3.93-.79-8.2-1-12.87-.43-8.84-4.12-17.08-7.06-25.3-3.14-8.74-3.83-16-.86-25,2.3-7,5.5-13.81,6.26-21.13.78-7.53-1.34-14.9-1.34-22.4a25.09,25.09,0,0,1,2.75-11.29C664.6,5,672.24,0,679.65,0c6.52,0,11.62,4.61,17.3,7.13,7.29,3.24,15.22.36,22.58,3.26,5.55,2.2,10.21,6.45,15.13,9.87a148.67,148.67,0,0,1,16.28,12.4C758.21,39.36,764.29,48.26,765.54,57.87Z"/><path class="cls-3" d="M736.93,192.67c.8.84,1.09,2.23.66,4.15-4,17.87-9.34,36.51-17.06,53.17-6.69,14.42-17.62,28.74-35,28.74-9.62,0-19-4-24.9-11.74-7.17-9.43-6.92-22.78-4.84-34,1.87-10.12,5.63-19.77,9.37-29.36,2.32-5.94,6-5.57,11.53-5a121.86,121.86,0,0,0,18.52.68,120.87,120.87,0,0,0,36.52-7.1C734,191.45,735.89,191.6,736.93,192.67Z"/><path class="cls-4" d="M758,79.62c4.24,8.34,1.56,22.32.86,31.28-1.22,15.64-4.45,30.65-8.08,45.85-1.75,7.31-4,14.66-8.39,20.79C728,197.75,693,194.76,671.68,192c-6.9-.88-3.54-5.6-3.39-10.36a65.39,65.39,0,0,0-.36-8.74c-1-9.81-3.57-19.46-5.52-29.11-.42-2-.8-4.22.14-6.06a9.26,9.26,0,0,1,3.05-3c5.38-3.9,10.77-7.72,15.88-12A217.51,217.51,0,0,0,715.74,87c8.67-11.44,25.4-11.69,38.35-10.32A4.87,4.87,0,0,1,758,79.62Z"/></g></g></svg>